<?xml version="1.0" encoding="UTF-8"?>
<!DOCTYPE svg PUBLIC "-//W3C//DTD SVG 1.1//EN" "http://www.w3.org/Graphics/SVG/1.1/DTD/svg11.dtd">
<svg xmlns="http://www.w3.org/2000/svg" version="1.1" width="512px" height="512px" style="shape-rendering:geometricPrecision; text-rendering:geometricPrecision; image-rendering:optimizeQuality; fill-rule:evenodd; clip-rule:evenodd" xmlns:xlink="http://www.w3.org/1999/xlink">
<g><path style="opacity:0.986" fill="#093863" d="M 111.5,-0.5 C 207.5,-0.5 303.5,-0.5 399.5,-0.5C 424.822,8.8103 433.655,26.477 426,52.5C 418.143,67.6807 405.643,75.014 388.5,74.5C 388.913,100.528 388.413,126.528 387,152.5C 378.766,200.215 352.933,234.548 309.5,255.5C 352.933,276.452 378.766,310.785 387,358.5C 388.413,384.472 388.913,410.472 388.5,436.5C 412.836,437.336 426.503,449.836 429.5,474C 427.739,493.246 417.739,505.746 399.5,511.5C 303.5,511.5 207.5,511.5 111.5,511.5C 84.0794,500.304 76.246,480.971 88,453.5C 96.6389,441.265 108.472,435.598 123.5,436.5C 123.333,411.498 123.5,386.498 124,361.5C 131.54,312.74 157.373,277.407 201.5,255.5C 157.386,233.633 131.553,198.3 124,149.5C 123.5,124.502 123.333,99.5022 123.5,74.5C 108.472,75.4021 96.6389,69.7354 88,57.5C 78.3944,38.5073 81.2277,21.674 96.5,7C 101.313,3.92666 106.313,1.42666 111.5,-0.5 Z"/></g>
<g><path style="opacity:1" fill="#00eed0" d="M 114.5,20.5 C 207.834,20.3333 301.167,20.5 394.5,21C 407.184,25.5492 410.684,34.0492 405,46.5C 402.512,50.3251 399.012,52.4918 394.5,53C 301.5,53.6667 208.5,53.6667 115.5,53C 103.386,47.2492 100.552,38.4159 107,26.5C 109.688,24.636 112.188,22.636 114.5,20.5 Z"/></g>
<g><path style="opacity:1" fill="#fcda41" d="M 144.5,74.5 C 218.833,74.5 293.167,74.5 367.5,74.5C 367.667,95.1694 367.5,115.836 367,136.5C 362.479,190.752 334.313,225.918 282.5,242C 232.06,251.641 191.893,235.808 162,194.5C 152.957,179.706 147.291,163.706 145,146.5C 144.5,122.502 144.333,98.5023 144.5,74.5 Z"/></g>
<g><path style="opacity:1" fill="#0e3962" d="M 251.5,81.5 C 256.866,81.1162 261.032,83.1162 264,87.5C 264.333,91.5 264.667,95.5 265,99.5C 282.937,106.386 291.604,119.386 291,138.5C 285.073,146.047 278.74,146.38 272,139.5C 270.574,121.552 261.741,116.052 245.5,123C 237.645,133.494 239.312,142.161 250.5,149C 271.277,148.962 284.777,158.795 291,178.5C 293.055,198.901 284.555,212.734 265.5,220C 264.895,224.196 264.062,228.363 263,232.5C 256.223,238.319 250.223,237.652 245,230.5C 244.825,226.789 244.325,223.122 243.5,219.5C 226.684,211.867 219.184,198.867 221,180.5C 226.025,174.645 231.692,173.979 238,178.5C 239.605,184.244 241.605,189.911 244,195.5C 252.251,202.326 260.251,201.993 268,194.5C 273.241,177.382 266.741,169.216 248.5,170C 225.133,161.928 216.3,145.762 222,121.5C 226.363,111.637 233.53,104.637 243.5,100.5C 244.328,96.2044 244.828,91.8711 245,87.5C 247.063,85.2659 249.229,83.2659 251.5,81.5 Z"/></g>
<g><path style="opacity:1" fill="#00abe9" d="M 238.5,266.5 C 292.355,261.967 331.855,283.301 357,330.5C 362.521,342.583 365.854,355.249 367,368.5C 367.5,391.164 367.667,413.831 367.5,436.5C 361.158,436.666 354.825,436.5 348.5,436C 328.5,414 308.5,392 288.5,370C 263.078,352.078 238.912,353.578 216,374.5C 197.5,395 179,415.5 160.5,436C 155.177,436.499 149.844,436.666 144.5,436.5C 144.333,411.831 144.5,387.164 145,362.5C 155.455,310.213 186.621,278.213 238.5,266.5 Z"/></g>
<g><path style="opacity:1" fill="#fcda41" d="M 247.5,378.5 C 256.54,377.238 264.873,379.071 272.5,384C 288.5,401.333 304.5,418.667 320.5,436C 276.5,436.667 232.5,436.667 188.5,436C 204.5,418.667 220.5,401.333 236.5,384C 240.259,382.121 243.925,380.287 247.5,378.5 Z"/></g>
<g><path style="opacity:1" fill="#00eed0" d="M 115.5,457.5 C 208.501,457.333 301.501,457.5 394.5,458C 407.184,462.549 410.684,471.049 405,483.5C 402.635,486.869 399.468,489.036 395.5,490C 302.167,490.667 208.833,490.667 115.5,490C 103.371,484.226 100.538,475.392 107,463.5C 109.671,461.098 112.505,459.098 115.5,457.5 Z"/></g>
</svg>
